<svg height="512pt" viewBox="0 0 512 512" width="512pt" xmlns="http://www.w3.org/2000/svg">
    <path d="m512 256c0 68.378906-26.628906 132.671875-74.980469 181.019531-48.347656 48.351563-112.640625 74.980469-181.019531 74.980469s-132.671875-26.628906-181.019531-74.980469c-48.351563-48.347656-74.980469-112.640625-74.980469-181.019531s26.628906-132.671875 74.980469-181.019531c48.347656-48.351563 112.640625-74.980469 181.019531-74.980469s132.671875 26.628906 181.019531 74.980469c48.351563 48.347656 74.980469 112.640625 74.980469 181.019531zm0 0"
          fill="#84caff"/>
    <path d="m512 256c0-5.789062-.207031-11.546875-.585938-17.273438l-106.273437-106.273437-226.140625 117.878906-72.140625 129.214844 131.867187 131.867187c5.726563.378907 11.484376.585938 17.273438.585938 68.378906 0 132.671875-26.628906 181.019531-74.980469 48.351563-48.347656 74.980469-112.640625 74.980469-181.019531zm0 0"
          fill="#00a6ff"/>
    <path d="m405.140625 132.453125v247.09375h-88.191406v-117.246094l-60.867188 60.863281-.011719-.011718-.070312.070312-6.191406-6.164062-54.757813-54.757813v117.246094h-88.191406v-247.09375h83.074219l66.066406 66.066406 66.066406-66.066406zm0 0"
          fill="#aeadb3"/>
    <path d="m405.140625 132.453125v247.09375h-88.191406v-117.246094l-60.867188 60.863281-.011719-.011718-.070312.070312v-124.703125l66.066406-66.066406zm0 0"
          fill="#78777f"/>
</svg>